<svg xmlns="http://www.w3.org/2000/svg" viewBox="0 0 1440 280" role="img" aria-label="Forest silhouette divider">
  <rect width="1440" height="280" fill="none" />
  <path
    d="M0 280L0 210L42 180L64 160L88 188L108 170L128 198L154 172L184 210L208 184L230 206L248 188L270 216L300 178L330 212L350 194L376 222L408 170L438 210L462 198L486 220L510 196L530 228L558 186L584 220L614 190L644 230L670 198L704 234L734 190L766 232L798 196L824 228L846 206L870 234L900 196L928 226L954 202L980 230L1016 198L1042 226L1070 210L1098 238L1128 196L1156 232L1184 202L1212 240L1240 198L1268 236L1298 206L1324 236L1360 188L1390 226L1420 206L1440 220L1440 280Z"
    fill="#0b0b14"
  />
</svg>
